<?xml version="1.0" encoding="UTF-8" standalone="no"?>
<!DOCTYPE svg PUBLIC "-//W3C//DTD SVG 1.1//EN" "http://www.w3.org/Graphics/SVG/1.1/DTD/svg11.dtd">
<svg width="100%" height="100%" viewBox="0 0 512 512" version="1.1" xmlns="http://www.w3.org/2000/svg" xmlns:xlink="http://www.w3.org/1999/xlink" xml:space="preserve" xmlns:serif="http://www.serif.com/" style="fill-rule:evenodd;clip-rule:evenodd;stroke-linejoin:round;stroke-miterlimit:2;">
    <rect x="0" y="0" width="512" height="512" style="fill:white;"/>
    <g id="Layer-1" serif:id="Layer 1">
        <g transform="matrix(1,0,0,1,328,355)">
            <path d="M0,-22L0,-48L10.697,-48C16.937,-48 23.656,-42.997 23.656,-35.159C23.656,-27.32 16.937,-22 10.697,-22L0,-22ZM31.495,12.894C31.495,20.409 25.255,26 17.734,26L16,26L16,45L18.058,45C36.775,45 51.975,29.959 51.975,11.078C51.975,0.197 46.854,-9.562 38.697,-15.803C42.375,-21.078 44.453,-27.318 44.453,-34.198C44.453,-52.275 29.734,-67 11.656,-67L-18,-67L-18,0L17.734,0C25.255,0 31.495,5.372 31.495,12.894" style="fill:rgb(0,153,153);fill-rule:nonzero;"/>
        </g>
        <g transform="matrix(-1,0,0,1,186.666,160)">
            <path d="M0,-16C4.411,-16 8,-12.412 8,-8C8,-3.588 4.411,0 0,0C-4.412,0 -8,-3.588 -8,-8C-8,-12.412 -4.412,-16 0,-16" style="fill:rgb(0,153,153);fill-rule:nonzero;"/>
        </g>
        <g transform="matrix(-1,0,0,1,104,98.6665)">
            <path d="M0,-16C4.412,-16 8,-12.411 8,-8C8,-3.588 4.412,0 0,0C-4.412,0 -8,-3.588 -8,-8C-8,-12.411 -4.412,-16 0,-16" style="fill:rgb(0,153,153);fill-rule:nonzero;"/>
        </g>
        <g transform="matrix(1,0,0,1,376,34.6665)">
            <path d="M0,16C4.411,16 8,12.412 8,8C8,3.589 4.411,0 0,0C-4.411,0 -8,3.589 -8,8C-8,12.412 -4.411,16 0,16" style="fill:rgb(0,153,153);fill-rule:nonzero;"/>
        </g>
        <g transform="matrix(-1,0,0,1,40,293.333)">
            <path d="M0,-16C4.412,-16 8,-12.411 8,-8C8,-3.588 4.412,0 0,0C-4.412,0 -8,-3.588 -8,-8C-8,-12.411 -4.412,-16 0,-16" style="fill:rgb(0,153,153);fill-rule:nonzero;"/>
        </g>
        <g transform="matrix(1,0,0,1,0,176)">
            <path d="M416,240L272,240L272,96L416,96L416,240ZM432,80L256,80L256,256L432,256L432,80Z" style="fill:rgb(0,153,153);fill-rule:nonzero;"/>
        </g>
        <path d="M448,224L432,224L432,192L448,192L448,224ZM448,448L240,448L240,240L448,240L448,448ZM448,496L432,496L432,464L448,464L448,496ZM416,496L400,496L400,464L416,464L416,496ZM383,496L368,496L368,464L383,464L383,496ZM352,496L336,496L336,464L352,464L352,496ZM320,496L304,496L304,464L320,464L320,496ZM288,496L272,496L272,464L288,464L288,496ZM256,496L240,496L240,464L256,464L256,496ZM224,256L192,256L192,240L224,240L224,256ZM224,288L192,288L192,272L224,272L224,288ZM224,320L192,320L192,304L224,304L224,320ZM224,352L192,352L192,336L224,336L224,352ZM224,385L192,385L192,368L224,368L224,385ZM224,416L192,416L192,400L224,400L224,416ZM224,448L192,448L192,432L224,432L224,448ZM256,224L240,224L240,192L256,192L256,224ZM162.667,152C162.667,138.748 173.417,128 186.667,128C197.112,128 205.974,135 209.271,144L256,144L256,176L240,176L240,160L209.271,160C205.974,169 197.112,176 186.667,176C173.417,176 162.667,165.252 162.667,152M288,224L272,224L272,192L288,192L288,224ZM320,224L304,224L304,192L320,192L320,224ZM352,224L336,224L336,192L352,192L352,224ZM383,224L368,224L368,192L383,192L383,224ZM176,256L159.021,256L127,224.984L127,127.349L159.349,96L346.018,96L368,74.021L368,65.271C358,61.971 352,53.109 352,42.667C352,29.414 362.75,18.667 376,18.667C389.255,18.667 399.5,29.414 399.5,42.667C399.5,53.111 394,61.973 383,65.271L383,80.647L352,112.651L352,127.682L383,159.682L383,176L368,176L368,166.314L352,150.316L352,176L336,176L336,112L320,112L320,176L304,176L304,112L288,112L288,176L272,176L272,112L165.982,112L144,133.984L144,218.349L165.651,240L176,240L176,256ZM176,288L127.021,288L112,272.982L112,314.349L133.651,336L176,336L176,352L127.021,352L96,320.984L96,256.984L95.927,256.912L96,256.838L96,113.271C87,109.971 80,101.109 80,90.667C80,77.414 90.75,66.667 104,66.667C117.255,66.667 128,77.414 128,90.667C128,101.111 121,109.973 112,113.271L112,250.349L133.651,272L176,272L176,288ZM176,320L133.333,320L127,314.667L127,304L176,304L176,320ZM80,320L63.021,320L50.1,307.08C47.026,308.514 43.613,309.333 40,309.333C26.75,309.333 16,298.586 16,285.333C16,272.081 26.75,261.333 40,261.333C53.255,261.333 64,272.081 64,285.333C64,289.122 63.098,292.693 61.534,295.881L69.651,304L80,304L80,320ZM416,224L400,224L400,192L416,192L416,224ZM464,432L496,432L496,448L464,448L464,432ZM464,400L496,400L496,416L464,416L464,400ZM464,368L496,368L496,385L464,385L464,368ZM464,336L496,336L496,352L464,352L464,336ZM464,304L496,304L496,320L464,320L464,304ZM464,272L496,272L496,288L464,288L464,272ZM464,240L496,240L496,256L464,256L464,240ZM432,144L512,144L512,0L448,0L448,101.896L416,133.984L416,176L400,176L400,127.435L432,95.354L432,0L0,0L0,368L176,368L176,385L0,385L0,512L96,512L96,431.349L127.354,400L176,400L176,416L133.982,416L112,437.984L112,512L127,512L127,447.349L143.354,432L176,432L176,448L149.982,448L144,453.984L144,512L512,512L512,160L448,160L448,176L432,176L432,144Z" style="fill:rgb(0,153,153);fill-rule:nonzero;"/>
        <g transform="matrix(-1,0,0,1,638,269)">
            <rect x="310" y="112" width="18" height="19" style="fill:rgb(0,153,153);"/>
        </g>
    </g>
</svg>
