<svg id="Capa_1" enable-background="new 0 0 512 512" height="512" viewBox="0 0 512 512" width="512" xmlns="http://www.w3.org/2000/svg"><g><g><path d="m370.448 97.02c-4.031-24.551-15.839-47.113-34.043-64.626-21.712-20.89-50.267-32.394-80.405-32.394s-58.693 11.504-80.405 32.394c-18.204 17.513-30.012 40.075-34.042 64.626-52.421 3.683-93.943 47.508-93.943 100.849 0 55.747 45.354 101.101 101.101 101.101h214.58c55.747 0 101.101-45.354 101.101-101.101-.001-53.342-41.523-97.167-93.944-100.849z" fill="#b6d9dd"/><path d="m142.509 338.483c-8.284 0-15 6.716-15 15v37.174c0 8.284 6.716 15 15 15s15-6.716 15-15v-37.174c0-8.284-6.716-15-15-15z" fill="#00c8c8"/><path d="m256 338.483c-8.284 0-15 6.716-15 15v37.174c0 8.284 6.716 15 15 15s15-6.716 15-15v-37.174c0-8.284-6.716-15-15-15z" fill="#00c8c8"/><path d="m369.491 338.483c-8.284 0-15 6.716-15 15v37.174c0 8.284 6.716 15 15 15s15-6.716 15-15v-37.174c0-8.284-6.716-15-15-15z" fill="#00a0aa"/><path d="m142.509 444.826c-8.284 0-15 6.716-15 15v37.174c0 8.284 6.716 15 15 15s15-6.716 15-15v-37.174c0-8.284-6.716-15-15-15z" fill="#00c8c8"/><path d="m256 444.826c-8.284 0-15 6.716-15 15v37.174c0 8.284 6.716 15 15 15s15-6.716 15-15v-37.174c0-8.284-6.716-15-15-15z" fill="#00c8c8"/><path d="m369.491 444.826c-8.284 0-15 6.716-15 15v37.174c0 8.284 6.716 15 15 15s15-6.716 15-15v-37.174c0-8.284-6.716-15-15-15z" fill="#00a0aa"/></g><path d="m363.29 298.969c55.747 0 101.101-45.354 101.101-101.101 0-53.341-41.521-97.166-93.942-100.849-4.031-24.551-15.839-47.113-34.043-64.626-21.713-20.889-50.268-32.393-80.406-32.393v298.969z" fill="#8eb8c2"/></g></svg>