<?xml version="1.0" encoding="UTF-8" standalone="no"?>
<!DOCTYPE svg PUBLIC "-//W3C//DTD SVG 1.1//EN" "http://www.w3.org/Graphics/SVG/1.1/DTD/svg11.dtd">
<svg width="100%" height="100%" viewBox="0 0 24 24" version="1.1" xmlns="http://www.w3.org/2000/svg" xmlns:xlink="http://www.w3.org/1999/xlink" xml:space="preserve" xmlns:serif="http://www.serif.com/" style="fill-rule:evenodd;clip-rule:evenodd;stroke-linejoin:round;stroke-miterlimit:2;">
    <path d="M5,7C7.761,7 10,9.239 10,12C10,14.761 7.761,17 5,17C2.239,17 0,14.761 0,12C0,9.239 2.239,7 5,7ZM16.122,19.065C16.049,19.366 16,19.676 16,20C16,22.209 17.791,24 20,24C22.209,24 24,22.209 24,20C24,17.791 22.209,16 20,16C18.835,16 17.796,16.506 17.065,17.301L11.577,14.374C11.347,15.01 11.028,15.603 10.634,16.138L16.122,19.065ZM24,4C24,1.791 22.209,-0 20,-0C17.791,-0 16,1.791 16,4C16,4.324 16.049,4.634 16.122,4.935L10.634,7.862C11.029,8.397 11.347,8.989 11.577,9.626L17.065,6.699C17.796,7.494 18.835,8 20,8C22.209,8 24,6.209 24,4Z" style="fill:rgb(255,151,0);fill-rule:nonzero;"/>
</svg>
