<svg id="Capa_1" enable-background="new 0 0 512 512" height="512" viewBox="0 0 512 512" width="512" xmlns="http://www.w3.org/2000/svg"><g><g><ellipse cx="256" cy="256" fill="#ffe14d" rx="156.14" ry="156.14" transform="matrix(.707 -.707 .707 .707 -106.039 256)"/><path d="m256 64.541c8.284 0 15-6.716 15-15v-34.541c0-8.284-6.716-15-15-15s-15 6.716-15 15v34.541c0 8.284 6.716 15 15 15z" fill="#ffe14d"/><path d="m415.806 74.98-24.424 24.424c-5.858 5.858-5.858 15.355 0 21.213 2.929 2.929 6.768 4.394 10.606 4.394s7.678-1.464 10.606-4.394l24.424-24.424c5.858-5.858 5.858-15.355 0-21.213-5.856-5.858-15.354-5.858-21.212 0z" fill="#fb3"/><path d="m497 241h-34.541c-8.284 0-15 6.716-15 15s6.716 15 15 15h34.541c8.284 0 15-6.716 15-15s-6.716-15-15-15z" fill="#fb3"/><path d="m412.595 391.382c-5.857-5.858-15.355-5.858-21.213 0s-5.858 15.355 0 21.213l24.424 24.424c2.929 2.929 6.768 4.394 10.606 4.394s7.678-1.464 10.606-4.394c5.858-5.858 5.858-15.355 0-21.213z" fill="#fb3"/><g fill="#ffe14d"><path d="m256 447.459c-8.284 0-15 6.716-15 15v34.541c0 8.284 6.716 15 15 15s15-6.716 15-15v-34.541c0-8.284-6.716-15-15-15z"/><path d="m99.405 391.382-24.424 24.424c-5.858 5.858-5.858 15.355 0 21.213 2.929 2.929 6.768 4.394 10.606 4.394s7.678-1.464 10.606-4.394l24.424-24.424c5.858-5.858 5.858-15.355 0-21.213-5.857-5.858-15.355-5.858-21.212 0z"/><path d="m49.541 241h-34.541c-8.284 0-15 6.716-15 15s6.716 15 15 15h34.541c8.284 0 15-6.716 15-15s-6.716-15-15-15z"/><path d="m99.405 120.617c2.929 2.929 6.768 4.394 10.606 4.394s7.678-1.464 10.606-4.394c5.858-5.858 5.858-15.355 0-21.213l-24.423-24.424c-5.857-5.858-15.355-5.858-21.213 0s-5.858 15.355 0 21.213z"/></g></g><g fill="#fb3"><path d="m271 49.541v-34.541c0-8.284-6.716-15-15-15v64.541c8.284 0 15-6.716 15-15z"/><path d="m412.14 256c0-86.096-70.044-156.14-156.14-156.14v312.28c86.096 0 156.14-70.044 156.14-156.14z"/><path d="m271 497v-34.541c0-8.284-6.716-15-15-15v64.541c8.284 0 15-6.716 15-15z"/></g></g></svg>