<svg id="Capa_1" enable-background="new 0 0 511.915 511.915" height="512" viewBox="0 0 511.915 511.915" width="512" xmlns="http://www.w3.org/2000/svg"><g><g><path d="m376.184 309.995c9.967-18.909 15.621-40.432 15.621-63.257 0-75-60.96-136.017-135.891-136.017-74.93 0-135.89 61.017-135.89 136.017 0 22.824 5.654 44.348 15.621 63.257z" fill="#ffe14d"/><path d="m255.915 84.715c8.284 0 15-6.716 15-15v-29.616c0-8.284-6.716-15-15-15s-15 6.716-15 15v29.616c0 8.284 6.715 15 15 15z" fill="#ffe14d"/><path d="m391.265 90.022-20.919 20.942c-5.854 5.861-5.85 15.358.012 21.213 2.929 2.926 6.764 4.388 10.601 4.388 3.841 0 7.684-1.467 10.612-4.399l20.919-20.942c5.854-5.861 5.85-15.358-.012-21.213-5.86-5.855-15.358-5.852-21.213.011z" fill="#fb3"/><path d="m462.337 231.738h-29.585c-8.284 0-15 6.716-15 15s6.716 15 15 15h29.585c8.284 0 15-6.716 15-15s-6.715-15-15-15z" fill="#fb3"/><path d="m79.077 231.738h-29.585c-8.284 0-15 6.716-15 15s6.716 15 15 15h29.585c8.284 0 15-6.716 15-15s-6.716-15-15-15z" fill="#ffe14d"/><path d="m130.872 136.564c3.836 0 7.673-1.462 10.601-4.388 5.861-5.855 5.866-15.353.011-21.213l-20.92-20.942c-5.855-5.861-15.353-5.866-21.213-.011s-5.866 15.353-.011 21.213l20.92 20.942c2.929 2.933 6.77 4.399 10.612 4.399z" fill="#ffe14d"/><path d="m359.017 309.995 24.531-16.544c5.341-14.574 8.257-30.309 8.257-46.713 0-74.986-60.937-135.993-135.848-136.016v182.053l2.153 17.22z" fill="#fb3"/><path d="m255.957 25.102v59.611c8.264-.023 14.957-6.728 14.957-14.998v-29.616c.001-8.269-6.692-14.974-14.957-14.997z" fill="#fb3"/><g fill="#00c8c8"><path d="m62.718 413.445h-62.718v30h62.718c8.284 0 15-6.716 15-15s-6.716-15-15-15z"/><path d="m234.775 362.115h-45.259c-8.284 0-15 6.716-15 15s6.716 15 15 15h45.259c8.284 0 15-6.716 15-15s-6.716-15-15-15z"/><path d="m181.284 456.815h-45.26c-8.284 0-15 6.716-15 15s6.716 15 15 15h45.26c8.284 0 15-6.716 15-15s-6.716-15-15-15z"/></g><path d="m435.84 346.906h-53.599c-8.284 0-15 6.716-15 15s6.716 15 15 15h53.599c8.284 0 15-6.716 15-15s-6.715-15-15-15z" fill="#00a0aa"/><path d="m376.805 441.701h-69.491c-8.284 0-15 6.716-15 15s6.716 15 15 15h69.491c8.284 0 15-6.716 15-15s-6.716-15-15-15z" fill="#00a0aa"/></g><path d="m496.915 291.775h-481.915c-8.284 0-15 6.716-15 15s6.716 15 15 15h481.915c8.284 0 15-6.716 15-15s-6.716-15-15-15z" fill="#00c8c8"/><path d="m496.915 291.775h-240.958v30h240.957c8.284 0 15-6.716 15-15s-6.715-15-14.999-15z" fill="#00a0aa"/></g></svg>