<svg id="Capa_1" enable-background="new 0 0 512 512" height="512" viewBox="0 0 512 512" width="512" xmlns="http://www.w3.org/2000/svg"><g><g><g><g><g><path d="m497 361h-62c-8.291 0-15-6.709-15-15v-165h-345c-8.291 0-15-6.709-15-15v-60c0-8.291 6.709-15 15-15h422c8.291 0 15 6.709 15 15v240c0 8.291-6.709 15-15 15z" fill="#97de3d"/></g></g></g></g><path d="m435 361h62c8.291 0 15-6.709 15-15v-240c0-8.291-6.709-15-15-15h-272v90h195v165c0 8.291 6.709 15 15 15z" fill="#59c36a"/><g id="Dollar_2_"><g><path d="m435 421h-420c-8.291 0-15-6.709-15-15v-240c0-8.291 6.709-15 15-15h420c8.291 0 15 6.709 15 15v240c0 8.291-6.709 15-15 15z" fill="#59c36a"/></g></g><path d="m435 151h-210v270h210c8.291 0 15-6.709 15-15v-240c0-8.291-6.709-15-15-15z" fill="#00a66c"/><g><g><g><g><path d="m345 361h-240c-8.291 0-15-6.709-15-15 0-8.276-6.738-15-15-15-8.291 0-15-6.709-15-15v-60c0-8.291 6.709-15 15-15 8.262 0 15-6.724 15-15 0-8.291 6.709-15 15-15h240c8.291 0 15 6.709 15 15 0 8.276 6.738 15 15 15 8.291 0 15 6.709 15 15v60c0 8.291-6.709 15-15 15-8.262 0-15 6.724-15 15 0 8.291-6.709 15-15 15z" fill="#97de3d"/></g></g></g></g><path d="m375 241c-8.262 0-15-6.724-15-15 0-8.291-6.709-15-15-15h-120v150h120c8.291 0 15-6.709 15-15 0-8.276 6.738-15 15-15 8.291 0 15-6.709 15-15v-60c0-8.291-6.709-15-15-15z" fill="#59c36a"/><g><path d="m285 301h-120c-8.291 0-15-6.709-15-15s6.709-15 15-15h120c8.291 0 15 6.709 15 15s-6.709 15-15 15z" fill="#59c36a"/></g><path d="m285 271h-60v30h60c8.291 0 15-6.709 15-15s-6.709-15-15-15z" fill="#00a66c"/></g></svg>